<svg xmlns="http://www.w3.org/2000/svg" viewBox="0 0 8.99 10.06"><defs><style>.cls-1{fill:#000}</style></defs><title>bullet</title><g id="Layer_2" data-name="Layer 2"><path class="cls-1" d="M9 4A43.26 43.26 0 0 0 5.89.18c-.26 0-.77-.34-.89-.09-.39-.09-.3.35-.64.26-.17 0-.09-.35-.26-.26a2.37 2.37 0 0 1-.94.43A9.89 9.89 0 0 0 0 6a2 2 0 0 0 0 .65A2.8 2.8 0 0 0 .41 8.1a3.15 3.15 0 0 0 2.76 1.43l.42.36a2.35 2.35 0 0 1 1.11.17 3.36 3.36 0 0 0 2.72-2.64c.26 0 .34-.17.51-.17 0-.6.42-.68.6-1.11.17-.68.59-1.02.47-2.14z" id="menu_expanded" data-name="menu expanded"/></g></svg>