<svg version="1" xmlns="http://www.w3.org/2000/svg" width="1262.667" height="1262.667" viewBox="0 0 947.000000 947.000000"><path d="M455 .6c-23.9 1.1-53.1 4.6-75 9.1C238.6 38.2 117.8 130 52.1 258.9c-24.5 48.2-40.4 99.8-47.5 154.6C-.8 455 .1 507.3 7 549.8c19.3 118.9 84.9 227.7 180.7 299.9 86.9 65.6 189.7 98.7 297.3 96 109.2-2.9 207.2-39.7 292.5-110.1 14.3-11.8 45.8-43.1 57.4-57.1 64.6-77.8 101.8-167.9 110.1-267 1.5-18.3 1.2-62.6-.5-81.6-12-128.5-74.6-245-175-325.6C697.9 46.8 609.5 10.9 519 2.6 502.1 1 468.3 0 455 .6zm41 185.3c22.8 6.2 39 20.6 43.9 38.9 3.6 13.3 3.2 32.9-.9 48.3-2.1 7.5-14.5 33.9-16 33.9-.5 0-2 2.4-3.4 5.3-1.5 2.9-6 9.3-10.1 14.2-4.1 4.9-7.7 9.6-8 10.5-.3.9-2.3 3.1-4.5 4.9-2.1 1.7-5.6 5.6-7.6 8.7-2 3-5.2 6.5-7 7.8-1.8 1.2-4.8 4.1-6.6 6.3-1.8 2.3-5.5 5.9-8.3 8.1-2.7 2.2-7.2 6.3-10 9.1-2.7 2.8-5.4 5.1-6.1 5.1-.6 0-2.2 1.4-3.5 3.1-1.3 1.7-6.4 6.5-11.4 10.6-4.9 4-10.8 8.8-12.9 10.6-2.2 1.7-4.9 3.8-6 4.6-1.2.8-3.2 2.5-4.6 3.8-4.6 4.3-17.8 14.2-30 22.3-2 1.4-5.6 3.7-7.8 5.2-2.3 1.6-4.8 2.8-5.6 2.8-.7 0-1.9.7-2.6 1.5-2.2 2.6-6.7 4.4-8 3.1-.9-.8-1.1-.6-.5 1.2.5 1.6.2 2.4-1.2 2.9-1 .4-2 .9-2.3 1.2-.8.9-8 5.4-12.2 7.6-2.1 1.1-3.8 2.2-3.8 2.6 0 .3 4.2 4.6 9.3 9.5 14.7 14.3 40.9 31.1 78.7 50.4 17.1 8.8 31.3 16 31.5 16 .3 0 4.2 1.7 8.7 3.9 4.6 2.1 15.1 7 23.3 10.9 8.3 3.8 16.1 7.3 17.5 7.7 5.4 1.5 18.6 7.9 19.8 9.6.6.9 2.5 2 4.1 2.4 1.6.3 3.5 1.3 4.2 2.1 2.4 2.9 4.4 1.5 6.8-4.9 2.4-6 3.7-9 9.4-20.7 1.5-3 2.7-5.8 2.7-6.2 0-.4 1.6-4.2 3.7-8.5 2-4.3 3.7-8.3 3.8-8.8.2-1.6 3.3-8.7 6-13.6 1.3-2.5 2.2-4.9 1.8-5.3-.3-.3-3.7-.6-7.5-.6s-8.4-.7-10.3-1.4c-1.9-.8-3.5-1.1-3.5-.5 0 .6-5.4.7-14.2.3l-14.3-.5-4.2-4.6c-4.1-4.4-5.8-7.1-5.5-8.5.1-.4-.8-1.2-1.9-1.8-1.2-.7-1.8-1.8-1.5-2.6.3-.8-.1-1.4-.9-1.4-.7 0-1.7-1-2-2.1-.8-2.6 1.3-6.9 3.3-6.9.8 0 5.4-1.4 10.3-3 4.8-1.7 10.9-3.3 13.5-3.5 2.6-.3 5.9-1.1 7.3-1.8 1.6-.8 3.7-1 5.4-.6 1.5.4 2.7.4 2.7 0s3-1.2 6.6-1.8c3.6-.6 7.4-1.9 8.4-2.8.9-.8 4.1-2 7.1-2.4 3-.5 6.7-1.4 8.2-2 1.5-.6 3.1-1 3.5-.9.4.1 2.6-.4 5-1.1 2.3-.6 4.6-1 5.1-.7 1 .6 7.7-13.3 7.3-15.1-.2-.7.4-2.3 1.2-3.5.7-1.3 3.7-9.3 6.6-17.8 5.7-17 7.4-20.9 6.6-14.6-.4 2.8-.2 3.6.6 2.8.6-.6 1.6-.8 2.2-.6.7.3 1.9-1.7 2.9-4.9 1.9-6.2 2.2-8.9.3-3.8-1.2 3.3-3.6 5.4-3.6 3.2 0-.6.5-1.1 1.1-1.1.6 0 .9-.6.6-1.4-.3-.7 0-1.9.6-2.5.6-.6.9-1.1.7-1.2-4.8-.6-8.1-.4-11.4.8-2.3.7-5.4 1.3-7.1 1.1-1.6-.1-4.5.6-6.4 1.5-1.9.9-4.4 1.7-5.6 1.7-1.2 0-5.2 1.6-8.9 3.5s-7.3 3.5-8.1 3.5c-.7 0-2.3.9-3.6 1.9-2.3 1.9-2.3 2-.5 3.4 1.9 1.4 1.9 1.4-.2 3.5-3 3-4.3 2.8-8.1-1.4l-3.2-3.7-5.7 1.3c-8.6 1.8-30.8 9.3-38.2 12.8-3.6 1.7-12.8 6.8-20.5 11.4-7.8 4.6-16.6 9.2-19.8 10.3-5.3 1.8-5.8 1.8-7.3.3s-1.4-2.2 1.7-8.5c1.8-3.7 3.5-7.1 3.7-7.5.1-.3-1.1-2.2-2.7-4.1-3.8-4.3-3.9-6.6-.3-9.9 14.3-13.2 63.5-33.6 108.1-44.8 12.6-3.2 19.8-5.4 20.3-6.4.6-1.1 2.4-1.6 5.8-1.6 2.7 0 6.1-.5 7.7-1.1 3.7-1.5 6.3-1.8 6.3-.7 0 .5 1.5.8 3.3.7 2.2-.2 3.1.1 2.9 1-.2.8 1.1.5 3.5-1 4.5-2.7 5.6-4.1 4-5.1-2.1-1.3 2.6-6.2 7.9-8.2 2.7-1.1 7.1-3 9.8-4.3 5.2-2.4 10.8-2.9 14.9-1.4 2.6 1 5.9 7.9 5.4 11.6-.2 1.7.5 2.1 3.8 2.3 2.2.2 4.2.8 4.6 1.3.8 1.4 4.3 1.8 5 .7.6-1 16.1.5 28.9 2.8 34.7 6.2 53.6 20.8 55.7 42.8 1.5 16.1-8.2 25.1-45.4 42.1-5.7 2.5-11.3 4.7-12.5 4.7-1.3.1-3.2.8-4.3 1.5-1.1.7-2.7 1.3-3.7 1.3s-1.8.4-1.8.8c0 1.2-6.5 3.3-8.3 2.6-.9-.3-2.3.3-3.4 1.5-1.1 1.3-2.9 2.1-4.9 2.1-1.7 0-3.7.7-4.4 1.5-.9 1.1-2.2 1.4-4.2 1-1.8-.4-2.8-.3-2.8.5 0 .6-.4.8-1 .5-.5-.3-1-.2-1 .3s-1.1.7-2.5.4c-1.8-.3-2.5 0-2.3.9.2.8-.6 1.4-1.7 1.5-1.1 0-3.8.6-6 1.2-2.2.7-5.3 1.2-6.8 1.2-1.6 0-2.6.4-2.2 1 .3.5-.1 1-.9 1-2.1 0-3.1-2.1-1.5-3.1.8-.5.9-.9.3-.9-.5 0-1.8.6-2.8 1.3-2.6 1.9-1 4.5 3.2 5.2 2.1.4 6.2 1.5 9.2 2.5 3 1 9.1 2.6 13.5 3.5 17.1 3.6 56.3 16.7 57.9 19.4.3.4 3.4 2.2 6.8 4 9.5 4.8 15.4 9.7 22.9 19 7.5 9.3 14 21.4 16.3 30.7 3 11.5 1.4 27.9-3.4 37.4-4.2 8.3-13 20.7-18.7 26.5-7.4 7.6-14.4 13.5-15.8 13.5-.6 0-2.4 1.3-4 3-1.6 1.6-3.3 3-3.7 3-.5 0-1.4.5-2.1 1.1-.7.5-2.5 1.9-4.2 2.9-1.6 1.1-4.1 2.8-5.5 3.7-2.2 1.7-2.3 1.7-1.8.1.5-1.2.3-1.5-.7-1.1-.8.3-1.2.9-.9 1.5.9 1.3-2.2 4.4-5.9 5.9-1.8.7-4 1.9-4.9 2.7-2.1 1.8-2.3.5-.6-3.3.6-1.4 1.6-2.5 2.3-2.5 1.5 0 10.7-6.1 10.1-6.7-.3-.3-1.5.2-2.8 1.1-1.2.9-3 1.6-4 1.6s-1.8.6-1.8 1.4c0 .8-1.1 1.7-2.4 2-2.7.7-9.2 6.4-8.3 7.3.4.3 1.5-.5 2.6-1.8 2-2.4 2-2.4 2.1-.3 0 2.3-4.6 6-6.9 5.6-.7-.2-1 .1-.7.7.4.6-1.1 1.9-3.4 3.1-2.2 1.1-4 1.7-4 1.3 0-.4-.7.2-1.5 1.4s-3.2 2.7-5.3 3.3c-2 .7-4.4 1.8-5.2 2.5-2.3 2-13.8 7.5-15.5 7.5-.8 0-1.5.4-1.5.8 0 .5-2.8 2.1-6.1 3.5-5.4 2.3-6 2.4-4.4.7.9-1 3.4-2.5 5.4-3.1 2-.7 4.7-2 6.1-2.9 3.5-2.4 7.4-4.7 8-4.8.3 0 2.5-1.2 5-2.5 2.5-1.4 7.7-4.2 11.5-6.1 3.9-2 6.6-3.6 6-3.6-.5 0 .5-1 2.4-2.2 1.9-1.2 2.9-2.4 2.2-2.6-.6-.2-1.7 0-2.4.6-.7.5-5.7 3.3-11.2 6.2-5.5 2.9-11.6 6.2-13.5 7.2-1.9 1.1-8.4 4.5-14.5 7.6-6 3.1-10.9 6.2-10.8 6.8.1.7-.8 1.2-2 1.2-3.2 0-9.9 2.7-11.3 4.6-.6.9-1.6 1.6-2 1.4-1.5-.4-5.4 1.3-5.4 2.3 0 .5-.6.9-1.4.9-2 0-14.8 5.8-16.9 7.7-.9.9-2 1.3-2.3 1-.4-.3-2.7.4-5.3 1.7-2.5 1.2-7.4 3.3-10.8 4.6-3.6 1.3-6.3 2.8-6.3 3.6 0 .8-.6 1.4-1.2 1.4-1 0-1 .2-.1.8.9.5.1 1.3-2.2 2.4-2.4 1.1-3.7 1.2-4.2.5-.4-.6-.2-1.2.4-1.4.6-.2 1.9-1 2.9-1.8 3.3-2.5-.9-1.8-6.3 1.1-3.2 1.7-3.9 2.3-2.1 2 1.5-.4 3-.1 3.4.5.5.8-.6 1-3.7.7-5.5-.6-19.9 3.6-19.9 5.7 0 .8-.7 1.5-1.6 1.5-.8 0-1.3-.4-1-.9.7-1-11.8 2.8-15.1 4.7-1.2.7-3.6 1.2-5.3 1.2-3.9 0-7 1.6-7 3.6 0 .9-.8 2.8-1.9 4.2-1 1.5-2.7 5.2-3.9 8.2-1.1 3-4.1 9.8-6.5 15-2.5 5.2-5.7 13.2-7.3 17.7-1.5 4.5-3 8-3.4 7.8-.4-.3-1 .9-1.4 2.5-.3 1.7-1 3-1.6 3-1.2 0-1.4-2.3-.3-3.4.4-.4.8-2.1.9-3.9.2-2.7 0-2.8-.9-1.1-.5 1-1.6 2.3-2.4 2.7-1.1.7-1.2 1.2-.2 2.3 1 1.2.9 1.3-.5.8-1.2-.4-1.6 0-1.6 1.5 0 1.9-2 2.7-5.2 2.2-.5 0-.8.5-.8 1.3 0 .7-.7 1.9-1.5 2.6-1.2 1-1.5 1-1.5-.2 0-.8.5-1.9 1.1-2.5.8-.8.8-1.6 0-3-.6-1-1.1-1.2-1.1-.6 0 .7-.7 1.3-1.5 1.3-1.7 0-2 1.6-.5 2.5.6.3 1 1.1 1 1.7 0 .7-.6.6-1.5-.2-1.3-1-1.5-.9-1.5.9 0 1.6-.6 2.1-2.6 2.1-2.1 0-2.5-.3-1.9-1.7.4-1 .9-3.8 1.1-6.3.2-2.5.1-3.7-.2-2.8-.6 1.9-2.4 2.5-2.4.8 0-.6.6-2.3 1.4-3.8 1.1-2.2 1.1-2.9.1-3.9-.7-.6-1.6-.9-1.9-.6-.9 1-.7-2 .3-3.6.5-.8 1.6-1.1 2.5-.8.9.4 1.6.2 1.6-.3 0-.6-.6-1-1.4-1-1.6 0-3-6.1-2.1-9.3.4-1.2 2.8-7.1 5.3-13.1 3.2-7.5 4.3-11.1 3.4-11.4-.7-.2-1.2-.8-1.2-1.3 0-.4.7-.6 1.5-.3.8.4 1.5.2 1.5-.3s-3.3-1-7.2-1.1c-9.3-.2-13.6-.9-22.3-3.4-14-4.1-19.7-8.6-30.5-23.8-7.6-10.7-10-16.5-10-24.5 0-5.5 1.5-7.5 2.3-3.3.4 2 .4 1.9.6-.5 0-1.7.7-2.7 1.6-2.7 1 0 1.5-1 1.5-2.7 0-3.4 2.9-11.3 4.2-11.3.5 0 .6.9.3 2.1-.6 1.7-.3 2 1.1 1.7 1.1-.2 2.1-1.4 2.4-2.8.7-3.5 4.2-7.3 5.2-5.7.5.8.8.5.8-.9 0-2.1 2.9-6.8 3-4.7 0 .6-.5 1.5-1 1.8-.6.4-.8 1-.5 1.5.6 1 3.8-1.8 5.5-4.9.6-1.2 1.5-2.1 2.1-2.1.6 0 1.8-.9 2.7-2.1 1.2-1.3 2.3-1.8 3.5-1.3 1.7.6 1.7.7 0 2.7-1.7 1.9-1.6 1.9 1.4-.2 4.5-3.1 5-4.2 1.4-3.5-2.9.6-3.1.4-2.9-2 .1-1.4.6-2.6 1-2.6 1.4 0 4.8-3.4 4.8-4.8 0-.7.4-1.1.9-.8 1.6 1 4.1-.5 3.9-2.3-.2-.9.3-1.5 1-1.4.6.2 1.2-.2 1.2-.7 0-.6.7-1 1.5-1s1.5-.7 1.5-1.5.7-1.5 1.6-1.5c.9 0 3.6-1.7 6.1-3.7 3.6-3 4.6-3.4 5.4-2.2.8 1.1 1.5.8 3.9-1.9 1.7-1.8 3-2.9 3-2.6 0 .3 1.2-.1 2.6-1.1 2.1-1.4 2.8-1.5 3.5-.4.9 1.5.3 2.9-1.2 2.9-.6 0-.7-.6-.3-1.3.3-.6-1.2.6-3.4 2.8-4.3 4.2-5.2 5.8-2.7 4.9 1.6-.6 2.1 1.1.7 2-.5.3-.7 2-.4 3.7.4 2.7.2 3.1-1.2 2.6-1-.4-1.9-.1-2.2.8-.4.8-1.1 1.2-1.7.8-.5-.3-.7-.1-.3.5.3.6 0 1.6-.7 2.4-.7.7-1.6 2.1-2 3.1-.4 1.1-1.2 1.5-1.8 1.1-.8-.5-.9-.3-.4.6.5.8-1.2 3.1-4.9 6.6-3.1 2.9-5.6 5.8-5.6 6.4 0 .5-.4 1-.9 1-.9 0-8.3 10.7-11.6 16.8-1.6 2.9-2 5.6-2 12.9 0 12.1 1.1 13.8 12.7 18.8 6.9 2.9 33.8 3.2 33.8.4 0-.6.7-1.7 1.5-2.5.8-.9 1.5-2.4 1.5-3.4s.5-2.2 1-2.5c.6-.4.8-1.1.5-1.6-.4-.5-.1-.9.5-.9s.9-.3.6-.8c-.2-.4.6-3 2-5.7 1.3-2.8 2.4-5.3 2.4-5.8 0-.4 3.1-7.1 6.9-15 3.7-7.8 8.1-17.1 9.6-20.7 1.5-3.6 5.9-13.3 9.7-21.5 3.7-8.3 6.8-15.4 6.8-15.8 0-.4 1-2.4 2.3-4.5 1.3-2 2.9-5.7 3.6-8.2.7-2.5 2.2-6.2 3.3-8.4 1.1-2.1 1.6-4.2 1.1-4.6-.4-.5-28.9-9.9-63.3-21s-63.5-20.8-64.7-21.6c-1.2-.8-2.9-1.4-3.6-1.4-.8 0-2.5-.9-3.8-1.9-1.4-1-6.5-4-11.4-6.6-5-2.5-9.9-5.5-11-6.4-1.1-1-3.2-2.1-4.6-2.4-1.4-.4-3.8-1.8-5.3-3.2-1.5-1.4-3.1-2.5-3.6-2.5s-2.4-1.3-4.2-3c-1.8-1.6-3.8-3-4.5-3-.7 0-2.3-1.1-3.5-2.5-1.2-1.4-2.7-2.5-3.4-2.5-.7 0-1.7-.6-2.1-1.4-.4-.7-4.2-4.1-8.3-7.4-4.1-3.3-8.1-7-8.8-8.1-.7-1.2-1.6-2.1-2.2-2.1-1.8 0-5 13.5-7.5 31.8-2.8 20.8-4.4 27.9-8 35.6-3.4 7.1-5.2 7.9-14.4 6.6-7.7-1.1-11.1-3-11.1-6 0-1-.7-2.3-1.5-3-2-1.6-2-10.5.1-26.9 1.4-11.8 4.8-34.3 6.1-40.3l.5-2.7-5.3 2.9c-6.4 3.4-24.7 9-29.6 9-1.8 0-6 .9-9.3 2-3.8 1.3-8.1 1.9-12.2 1.8-3.5-.1-6.8.1-7.4.4-.5.4-3.6 0-6.9-.8-3.3-.7-8.2-1.4-10.9-1.4-9.4 0-26.5-11.6-27.9-18.9-.4-1.8-1.6-4.5-2.6-6-1.2-1.6-1.8-3.6-1.4-4.9.3-1.1-.2-3.1-1.1-4.4-.9-1.3-1.6-4.2-1.6-6.9 0-5.8 2-15.9 3.1-15.9.5 0 .9-.7.9-1.5 0-1.5 5.9-13.5 7.1-14.5.3-.3 1.2-1.6 1.8-2.9.7-1.3 3.2-4.3 5.4-6.7 2.3-2.5 4.2-4.8 4.2-5.2 0-2.3 26.3-24.2 29.1-24.2.7 0 2.3-1.1 3.6-2.4 1.3-1.3 5.9-4.7 10.3-7.6 4.4-2.9 9.2-6.1 10.7-7.2 1.5-1 3.6-1.8 4.6-1.8 1 0 3.8-1.4 6.1-3 3.8-2.8 7.4-4.7 29.1-15 10.9-5.2 18.4-7.5 17.6-5.4-.3.8-.1 1.4.5 1.4s.7.4.4 1c-.4.6.5.9 1.9.8 1.5-.1 2.6-.6 2.6-1.1 0-.5-.7-.7-1.5-.3-.8.3-1.5.1-1.5-.3 0-.5.6-1.2 1.3-1.4.7-.3.4-.6-.6-.6-2.9-.1-.9-2.1 2.2-2.1 1.5 0 3.3-.6 3.9-1.2 1-1 1.5-1 2.2.2.5.8 1 1 1 .5.1-.6.6.1 1.1 1.4.7 1.9 1.2 2.2 2.1 1.3.7-.7 2-1.2 2.9-1.2 2.6 0 3.3-3.1.9-3.7-1.1-.3-1.7-1-1.4-1.5.3-.5 1.7-.7 3.1-.3 1.6.4 2.2.2 1.8-.5-.3-.5-.2-1 .4-1 1.6 0 4.7-11.6 8.2-30.5 1.8-9.4 3.3-18 3.4-19.3.2-3.1 4.1-6.9 8.9-8.6 7.1-2.5 8.9-2.6 12.6-.3 9.9 6.1 9.8 6 10.3 10.2.3 2.2.2 4.4-.4 5-.5.5-.9 1.8-.9 3 0 1.1-.7 4.9-1.5 8.5-2.6 11.7-4.4 25.5-3.4 25.8.5.2.6.8.3 1.4-.5.7.2.9 2 .4 1.6-.4 2.5-.3 2.2.2-.3.5-2 1.3-3.8 1.6-3.1.7-3.2.8-1 1.6 2.5 1 3 3 .8 3-.8 0-1.7.4-2 .9-.4.5 1.9.7 5.4.4 3.3-.3 6-.3 6 0 0 1.4-5.5 4.1-9.2 4.7-4 .5-4 .5-6.4 8-1.3 4.1-3.1 11.1-3.9 15.5-.9 4.4-2.9 12.5-4.5 18-3.4 11.7-8 29.9-8 31.4 0 2.5 29.4-17.5 48.9-33.4 6.8-5.5 16.4-13.3 21.5-17.4 38.7-31.3 73.1-69.2 86.5-95.1 7.9-15.2 11.1-24 11.8-31.7.4-5.2.2-6.8-1.6-9.7-2.5-4-11.6-12.5-14.6-13.6-1.1-.5-4.2-1.7-7-2.8-7.6-2.9-24.4-4.6-40.3-3.9-22.3.9-44.3 5.6-59.9 12.6-4.9 2.2-12.2 5.2-16.3 6.6-12.9 4.6-31.1 13.5-40 19.5-4.7 3.2-10.5 6.8-13 8-10.6 5.3-34.9 23.6-41.3 31.2-2 2.4-4.4 5.1-5.2 6-.8 1-1.5 2.1-1.5 2.6 0 .4-.9 1.5-1.9 2.4-1.8 1.5-2.1 1.5-5-.3-10.3-6.2-10-25.2.7-36.3 6.9-7.1 20.7-18.2 28.7-23 4.4-2.7 9.1-5.7 10.4-6.7 1.3-1.1 3-1.9 3.9-1.9.8 0 3-1.4 4.9-3 1.8-1.7 3.9-3 4.4-3 .6 0 3.1-1.3 5.5-3 2.5-1.6 5.5-3.2 6.9-3.6 1.3-.3 2.6-1.2 2.8-1.8.3-.7 2-1.6 3.8-2 1.8-.3 7.3-2.9 12.2-5.6 4.9-2.8 9.5-5 10.2-5 2 0 11.8-4.2 14.4-6.2 1.3-1 3.5-1.8 5-1.8 4.1 0 7.1-1.1 7.1-2.6 0-.8 1-1.4 2.4-1.4 1.3 0 4.9-1.1 8-2.5 3.1-1.4 5.6-2.2 5.6-1.9 0 .4.6.2 1.3-.3 1.9-1.6 22.2-7.1 32.2-8.7 14-2.4 14.9-2.4 34-2.1 14.4.3 19.5.7 25.5 2.4zm-120 157c0 .5-1.3 1.4-3 2-3.5 1.2-4.2-.5-.7-1.9 2.9-1.2 3.7-1.2 3.7-.1zm265.6 138.8c-.7.7-2.6-.7-2.6-1.9 0-.6.6-.6 1.5.2.9.7 1.3 1.5 1.1 1.7zM482.8 624c-.7 1.1-1.7 2-2.2 2-.5 0-.1-.9.9-2s2-2 2.2-2c.2 0-.2.9-.9 2zM432 655.4c0 .3-.4.8-1 1.1-.5.3-1 .1-1-.4 0-.6.5-1.1 1-1.1.6 0 1 .2 1 .4zm-8 7.2c0 .8-.5 1.2-1 .9-.6-.4-.8-1.1-.5-1.6.9-1.4 1.5-1.1 1.5.7zm-12.3 11.6c-.3.8-.6.5-.6-.6-.1-1.1.2-1.7.5-1.3.3.3.4 1.2.1 1.9zm210 28.4c-.3.3-1.2.4-1.9.1-.8-.3-.5-.6.6-.6 1.1-.1 1.7.2 1.3.5zM600 712c-2 1.3-3.3 1.3-2.5 0 .3-.6 1.4-1 2.3-1 1.5 0 1.5.2.2 1zm-13.3 5.6c-1.6.8-3.4 1.3-4 1.1-.7-.3-.1-.9 1.3-1.5 3.8-1.6 5.9-1.3 2.7.4zm-5.7 1.8c0 .3-.4.8-1 1.1-.5.3-1 .1-1-.4 0-.6.5-1.1 1-1.1.6 0 1 .2 1 .4zm-6 3.6c-2 1.3-3.3 1.3-2.5 0 .3-.6 1.4-1 2.3-1 1.5 0 1.5.2.2 1zm-20.9 9.1c-1.7 1.4-2.7 1.7-3.5.9-1.3-1.3.9-3 3.9-3 1.9.1 1.8.2-.4 2.1zm-6.1 1.4c0 .9-.6 1.2-1.5.9-.8-.4-1.2-1-.9-1.5.8-1.4 2.4-1 2.4.6z"/><path d="M315.8 352.7c.7.3 1.6.2 1.9-.1.4-.3-.2-.6-1.3-.5-1.1 0-1.4.3-.6.6zm.2 22.8c-2.5 1.3-9 4.3-14.5 6.5-34.6 14.5-74.7 41.8-94 64.2-6.6 7.7-17.5 23.8-17.5 25.9 0 .9 1.6 2.5 3.8 3.5 3.1 1.6 6 1.9 18.7 1.9 16.9-.1 25.2-1.5 43-7.2 10.5-3.4 43-16.7 44.9-18.3.4-.5 2.6-6.6 4.8-13.7 3.9-12.7 17.8-63.1 17.8-64.6 0-1.2-2.3-.7-7 1.8zm363.8-.8c.7.3 1.6.2 1.9-.1.4-.3-.2-.6-1.3-.5-1.1 0-1.4.3-.6.6zm-19.8 22c.8.3 2 1 2.6 1.5.8.5 1.4.3 1.8-.7.4-1.2-.2-1.5-2.7-1.4-1.8 0-2.5.3-1.7.6zm19.8 2.4c1.5.6 3 .5 4-.1 1.3-.7.8-.9-2.3-.9-3.5 0-3.7.1-1.7 1zm-14.3.9l-10.9.5-3.6 12c-2 6.6-4.2 13.1-5 14.5-.7 1.3-1.3 3.1-1.4 4-.2 2.6-3.8 11-4.7 11-.5 0-.9 1.6-.9 3.5v3.5l4.3-.6c2.3-.4 4.7-1.1 5.4-1.6.6-.5 4.8-1.8 9.1-2.9 4.4-1 9.3-2.6 10.8-3.4 1.6-.8 3.7-1.5 4.7-1.5s2.8-.6 4-1.4c1.2-.8 7.4-3.2 13.7-5.5 17.5-6.1 27.6-10.6 32-14.1 2.2-1.7 4-3.5 4-4 0-.4-1.5-1.3-3.2-2-1.8-.6-4.9-1.8-6.8-2.6-6.4-2.5-28.8-7.5-33.4-7.5-1 0-3.1-.5-4.5-1.2-1.8-.8-6.2-1-13.6-.7zm23.3-.3c.6.2 1.8.2 2.5 0 .6-.3.1-.5-1.3-.5-1.4 0-1.9.2-1.2.5zm6.7 1.3c1.7.4 3.9.8 5 .8 1.6 0 1.5-.2-.5-.8-1.4-.4-3.6-.8-5-.8-2.2 0-2.2.1.5.8zm-81.9 18c-.9 1.7-1.5 3-1.2 3 .3 0-1 4.4-3 9.7-1.9 5.4-2.7 8.9-1.9 7.9.8-1.1 1.5-2.7 1.5-3.6 0-.9.3-1.9.6-2.3.7-.7 6.3-17.1 6-17.4-.1-.1-1 1.1-2 2.7zm-2.5-.4c0 1.1.3 1.4.6.6.3-.7.2-1.6-.1-1.9-.3-.4-.6.2-.5 1.3zm-6.3 26.4c-.3 1.4-.9 3.4-1.2 4.5-.4 1.1 0 .7.9-.8.9-1.6 1.5-3.6 1.3-4.5-.3-1.2-.6-1-1 .8zm116.2 3.4c-1.4.8-4.4 2-6.7 2.7-2.4.7-4.3 1.6-4.3 2.1 0 .4-.9.8-1.9.8-2.2 0-12.9 3.8-14.9 5.3-2.3 1.8-.4 1.9 2.2.2 1.9-1.3 3-1.4 3.9-.7 1 .8 1.6.6 2.6-.9.7-1.2 1.8-1.8 2.7-1.5.8.3 3.3-.5 5.7-1.8 2.3-1.3 6.1-2.9 8.5-3.7 2.3-.7 4.7-1.8 5.3-2.6 1.5-1.7.1-1.6-3.1.1zM666.5 468l-2 .9h2c1.1 0 2.7-.4 3.5-.9 1.3-.9 1.3-1 0-.9-.8 0-2.4.4-3.5.9zm-15.5 5.4c0 .2.8 1 1.8 1.7 1.5 1.3 1.6 1.2.3-.4s-2.1-2.1-2.1-1.3zm-18.3 7.5c2.6 2.5 5.5 2.8 4.6.6-.3-.9-.8-1.4-1-1.1-.3.3-1.7 0-3.2-.5l-2.6-1 2.2 2zm12.8 11.1c-.3.5-.1 1 .4 1 .6 0 1.1-.5 1.1-1 0-.6-.2-1-.4-1-.3 0-.8.4-1.1 1zm4.5 2.5c.7.8 1.7 1.5 2.2 1.5.5 0 .3-.7-.6-1.5-.8-.8-1.8-1.5-2.2-1.5-.3 0-.1.7.6 1.5zm10.5 2.5c.3.5.8 1 1.1 1 .2 0 .4-.5.4-1 0-.6-.5-1-1.1-1-.5 0-.7.4-.4 1zm-32.5 4c2.5.8 10.7 1.3 9.9.6-.2-.2-3.1-.6-6.4-.9-3.7-.3-5.1-.2-3.5.3zm13.4 2.2c1 .6 3.9 1.2 6.5 1.4 4 .2 4.2.1 2.1-.8-1.4-.5-4.3-1.2-6.5-1.3-3.2-.3-3.6-.2-2.1.7zm-73.1.5c.9.2 2.3.2 3 0 .6-.3-.1-.5-1.8-.5-1.6 0-2.2.2-1.2.5zm57.7 0c.8.2 2.1.7 2.9.9 1 .3 1.1.7.1 1.9-.8 1-1.8 1.1-3.6.4-3.2-1.1-9.1-1.2-9.8 0-.7 1 2.7 2.1 6.7 2.1 1.5 0 2.7.4 2.7.8 0 .5-1.3.7-3 .4-1.8-.3-3 0-3 .7 0 .6-.5 1.1-1.1 1.1-.5 0-.8-.4-.5-.9.3-.5-.3-1.1-1.3-1.4-1.6-.4-2.5.9-5.5 7.7-1.9 4.4-5.6 12.8-8.2 18.6-2.5 5.8-6.8 15.9-9.5 22.5-2.8 6.6-5.6 13.3-6.4 15-.8 1.6-2.3 5.2-3.5 8-1.2 2.7-3.4 7.7-5.1 11.1-1.6 3.4-2.9 6.5-2.9 7.1 0 1 5.7 3.3 8.3 3.3.9 0 1.7.7 1.7 1.5 0 1 1 1.5 3.3 1.5 1.9 0 3.7.3 4.1.7.4.5 1.1.8 1.4.9.4 0 2.5.9 4.7 1.8 2.2 1 6 2.6 8.4 3.7 2.4 1 4.9 1.9 5.6 1.9 1.4 0 7.5 2.9 7.5 3.6 0 .2-1.2.2-2.7-.1l-2.8-.6 2.9 1.6c2.3 1.4 3 1.4 3.7.4.6-1 1.3-1 3.4-.1 1.4.7 2.4 1.6 2.1 2-.5.9 8 5.2 10.2 5.2.7 0 1.2.5 1.2 1.1 0 .5-.3.9-.7.7-.5-.2-1.9-.9-3.3-1.5-1.4-.7-15.8-5.5-32-10.7l-29.5-9.5-2.2 2.7c-1.2 1.5-3.4 5.7-4.9 9.4-1.4 3.8-3 7-3.5 7.4-.5.3-.9 1.3-.9 2.3 0 1-.7 2.4-1.5 3.1-.8.7-1.5 2-1.5 3 0 1.8-4.3 11.2-20.1 43.9-4.9 10.1-8.9 18.5-8.9 18.7 0 .8 3.6.4 4.5-.5 1.1-1 16.1-6.1 18-6.1.7 0 1.8-.6 2.4-1.4.7-.8 2.6-1.8 4.2-2.1 5.2-1.2 62-27.4 73.4-33.9 6.1-3.5 16-8.9 22-12.1 6.1-3.2 12.2-6.9 13.7-8.1 1.5-1.2 6.1-4.1 10.2-6.3 4-2.3 7.9-4.8 8.7-5.7.7-.8 3-2.4 5.1-3.5 2.1-1.1 3.8-2.3 3.8-2.7.1-.4 3-2.7 6.6-5.2 3.6-2.5 10.7-8.5 15.6-13.4 7.6-7.5 9.8-10.4 13.4-18 5.5-11.1 5.8-16 1.6-22.7-2.5-3.9-12-12.9-13.6-12.9-1.8 0-12.6-8.5-12.2-9.6.3-.8.1-1.6-.4-1.9-.6-.4-1 .2-1 1.2 0 1.4-.2 1.5-.9.4-.7-1-.9-1.1-1.3-.1-.6 1.8-3.6 0-5.1-3-1.5-2.9-4-4-3.1-1.3.4 1.2-.1.9-1.8-.9-1.4-1.5-2.8-2.5-3.1-2.2-.3.3-2.1.3-3.9-.1-3.2-.7-3.2-.8-1-1.6 1.3-.5 3.6-.6 5-.2 2.5.6 2.6.5 1.3-1.1-.8-.9-2-1.4-2.8-1.2-.8.3-3.3-.4-5.6-1.6-2.3-1.3-4.6-2.3-5.2-2.3-.5 0-1.2-.3-1.5-.7-.5-.6-6-1.7-11.8-2.2-1.3-.2-2.7-.7-3-1.2-.4-.6-2-1.1-3.5-1.2-4-.3-6.7-2-6.1-3.7.5-1.1.2-1.3-1-.9-.9.3-1.6 1.3-1.6 2.1 0 1.2-.7 1-3.4-.7-2-1.2-3.7-1.7-4-1.1-1.1 1.7-8 0-10.3-2.5-1.2-1.3-3.2-2.4-4.5-2.3-1.4 0-1.7.3-.8.6zm2.1 9.6c-1.3 1.3-2.6.3-1.6-1.2.3-.6 1.1-.8 1.7-.5.6.4.6 1-.1 1.7zm9.9-.9c0 .8-1.4 1.5-3.5 1.8-2.2.2-3.5 0-3.5-.8 0-.7 1-.9 2.6-.6 1.9.3 2.5.1 2-.7-.4-.6-.1-1.1.8-1.1s1.6.6 1.6 1.4zm6 0c0 .2-.7.9-1.5 1.6-1.3 1.1-1.4 1-.9-.4.5-1.4 2.4-2.3 2.4-1.2zm4.7 1.2c-.3.3-1.2.4-1.9.1-.8-.3-.5-.6.6-.6 1.1-.1 1.7.2 1.3.5zm6.8.4c2.4.9 2.5 1 .8 2.8-1.7 1.7-3.8.9-2.7-1 .3-.4-.2-.8-1-.8-.9 0-1.6-.5-1.6-1 0-1.3 1.2-1.3 4.5 0zm14.5 4c1.3.8 1.3 1-.2 1-.9 0-2-.5-2.3-1-.8-1.3.5-1.3 2.5 0zm-10.5 1c.8 1.3-.5 1.3-2.5 0-1.3-.8-1.3-1 .2-1 .9 0 2 .4 2.3 1zm15.5-.6c0 .3-.4.8-1 1.1-.5.3-1 .1-1-.4 0-.6.5-1.1 1-1.1.6 0 1 .2 1 .4zm-19.2-12.7c.7.3 1.6.2 1.9-.1.4-.3-.2-.6-1.3-.5-1.1 0-1.4.3-.6.6zm-110.7 3.7c.2.2 5.6.6 11.9.9 6.5.3 10.6.1 9.5-.3-1.9-.8-22.3-1.4-21.4-.6zm23.9 2.2c0 1.7 2.2 1.4 2.8-.4.2-.7-.3-1.2-1.2-1.2-.9 0-1.6.7-1.6 1.6zm167.1 121c0 1.1.3 1.4.6.6.3-.7.2-1.6-.1-1.9-.3-.4-.6.2-.5 1.3zm-3.6 2.4c-.3.5-.1 1 .4 1 .6 0 1.1-.5 1.1-1 0-.6-.2-1-.4-1-.3 0-.8.4-1.1 1zm-273 2c.8 1.3 4.6 1.9 4.2.7-.2-.7-1.3-1.3-2.5-1.3-1.2-.1-1.9.2-1.7.6zm-3 3c-.3.5-.2 1 .4 1 .5 0 1.3-.5 1.6-1 .3-.6.2-1-.4-1-.5 0-1.3.4-1.6 1zm6.4 2.7c-1.3 1.5-1.2 1.5 1.1.3 3.4-1.7 3.6-2 1.8-2-.9 0-2.2.7-2.9 1.7zm-14.1 2c.7.3 1.6.2 1.9-.1.4-.3-.2-.6-1.3-.5-1.1 0-1.4.3-.6.6zm8 1.2c-1 1.3-1.5 2.8-1.1 3.4.9 1.4 3.5-1.8 3.1-3.9-.3-1.7-.5-1.7-2 .5zm259.2 2.2l-2.5 2 3.3-1.6c1.7-.8 3.2-1.8 3.2-2 0-1-1.6-.4-4 1.6zm-273.8 4.6c-4.7 2.8-5.1 4.3-.5 1.9 2.5-1.2 6.3-4.7 5.2-4.6-.2.1-2.3 1.2-4.7 2.7zm9.8 1.1c0 .5.7 1.3 1.6 1.6 1 .4 1.4.1 1.2-.6-.5-1.5-2.8-2.3-2.8-1zm-3.6 3.3c-.8 1.3 1.3 3.6 2.3 2.5.4-.4.1-1.1-.6-1.5-1.1-.7-1.1-1 0-1.4.9-.3 1-.6.2-.6-.6-.1-1.5.4-1.9 1zm-5.7 7.6c-.4.3-.7 1.1-.7 1.7 0 .6.5.5 1.2-.2.6-.6.9-1.4.7-1.7-.3-.3-.9-.2-1.2.2zm-1.2 5.3c-.3.5-.1 1 .4 1 .6 0 1.1-.5 1.1-1 0-.6-.2-1-.4-1-.3 0-.8.4-1.1 1zm-2.6 3.7c-1.3 1.6-1.2 1.7.4.4 1.6-1.3 2.1-2.1 1.3-2.1-.2 0-1 .8-1.7 1.7zm-8.2 4.2c-2.4 4.2-2.1 5.2.4 1.3 1.2-1.8 2-3.5 1.7-3.7-.2-.2-1.2.9-2.1 2.4zm2.3 2.2c0 1.5 1.8 1.9 2.3.6.3-.8-.1-1.4-.9-1.4s-1.4.4-1.4.8zm-25.5 3c-.4.6-.5 1.2-.2 1.5.2.3.7-.2 1-1.1.7-1.7.1-2-.8-.4zm62.6 112.5c0 1.1.3 1.4.6.6.3-.7.2-1.6-.1-1.9-.3-.4-.6.2-.5 1.3z"/></svg>