<svg xmlns="http://www.w3.org/2000/svg" viewBox="0 0 8.99 10.06"><defs><style>.cls-1{fill:#fff;}</style></defs><title>bullet</title><g id="Layer_2" data-name="Layer 2"><g id="menu_expanded" data-name="menu expanded"><path class="cls-1" d="M9,4A43.26,43.26,0,0,0,5.89.18C5.63.18,5.12-.16,5,.09,4.61,0,4.7.44,4.36.35,4.19.35,4.27,0,4.1.09a2.37,2.37,0,0,1-.94.43A9.89,9.89,0,0,0,0,6a2,2,0,0,0,0,.65A2.8,2.8,0,0,0,.41,8.1,3.15,3.15,0,0,0,3.17,9.53l.42.36a2.35,2.35,0,0,1,1.11.17A3.36,3.36,0,0,0,7.42,7.42c.26,0,.34-.17.51-.17,0-.6.42-.68.6-1.11C8.7,5.46,9.12,5.12,9,4Z"/></g></g></svg>