<svg xmlns="http://www.w3.org/2000/svg" viewBox="0 0 27.15 27.15"><defs><style>.cls-1{fill:#fff;}</style></defs><title>email</title><g id="Layer_2" data-name="Layer 2"><g id="content"><path class="cls-1" d="M24.94,27.15H2.21A2.21,2.21,0,0,1,0,24.94V13a.51.51,0,0,1,.22-.42l4.51-3a.5.5,0,0,1,.69.14.49.49,0,0,1-.13.69L1,13.27V24.94a1.21,1.21,0,0,0,1.21,1.21H24.94a1.21,1.21,0,0,0,1.21-1.21V13.27l-4.29-2.89a.49.49,0,0,1-.13-.69.5.5,0,0,1,.69-.14l4.51,3a.51.51,0,0,1,.22.42V24.94A2.21,2.21,0,0,1,24.94,27.15Z"/><path class="cls-1" d="M23.49,24a.5.5,0,0,1-.32-.11L17.45,19H9.7L4,23.88a.5.5,0,0,1-.65-.77l5.86-5A.55.55,0,0,1,9.52,18h8.11a.55.55,0,0,1,.33.12l5.86,5a.52.52,0,0,1,.06.71A.52.52,0,0,1,23.49,24Z"/><path class="cls-1" d="M19.83,18.05a.5.5,0,0,1-.28-.91l6.82-4.55a.51.51,0,0,1,.7.14.5.5,0,0,1-.14.69L20.11,18A.5.5,0,0,1,19.83,18.05Z"/><path class="cls-1" d="M7.32,18.05A.5.5,0,0,1,7,18L.22,13.42a.5.5,0,0,1-.14-.69.51.51,0,0,1,.7-.14L7.6,17.14a.5.5,0,0,1-.28.91Z"/><path class="cls-1" d="M22.14,16.51a.5.5,0,0,1-.5-.5V1H5.51V16a.5.5,0,0,1-1,0V.5A.5.5,0,0,1,5,0H22.14a.5.5,0,0,1,.5.5V16A.5.5,0,0,1,22.14,16.51Z"/><path class="cls-1" d="M10.87,4.61H8.62a.5.5,0,0,1-.5-.5.5.5,0,0,1,.5-.5h2.25a.5.5,0,0,1,.5.5A.5.5,0,0,1,10.87,4.61Z"/><path class="cls-1" d="M18.53,7.31H10.87a.5.5,0,0,1-.5-.5.5.5,0,0,1,.5-.5h7.66a.5.5,0,0,1,.5.5A.5.5,0,0,1,18.53,7.31Z"/><path class="cls-1" d="M18.53,10.92H8.62a.5.5,0,0,1,0-1h9.91a.5.5,0,0,1,0,1Z"/><path class="cls-1" d="M18.53,14.53H8.62a.5.5,0,0,1-.5-.5.5.5,0,0,1,.5-.5h9.91a.5.5,0,0,1,.5.5A.5.5,0,0,1,18.53,14.53Z"/></g></g></svg>