<svg xmlns="http://www.w3.org/2000/svg" viewBox="0 0 20.65 17.2"><defs><style>.cls-1{fill:#164ca0;}</style></defs><title>friend</title><g id="Layer_2" data-name="Layer 2"><g id="content"><path class="cls-1" d="M14.45,17.2H1.17A1.13,1.13,0,0,1,0,16V14.09a1.56,1.56,0,0,1,1-1.53c.75-.33,2.67-1,4-1.42V11a2.2,2.2,0,0,0-.13-.89A5.8,5.8,0,0,1,4.42,8.7a3.84,3.84,0,0,1-.63-1.57,2.37,2.37,0,0,1,0-1.47,7.63,7.63,0,0,0-.13-1.6,3.6,3.6,0,0,1,.75-2.64A3.83,3.83,0,0,1,7.36,0h.81a3.87,3.87,0,0,1,3,1.42,3.6,3.6,0,0,1,.75,2.64,8.55,8.55,0,0,0-.14,1.59,2.32,2.32,0,0,1,0,1.48,3.87,3.87,0,0,1-.63,1.57,5.79,5.79,0,0,1-.43,1.42,2.21,2.21,0,0,0-.26.87v.14c1.28.39,3.16,1,4,1.39h0a1.8,1.8,0,0,1,1.15,1.58V16A1.13,1.13,0,0,1,14.45,17.2Z"/><polygon class="cls-1" points="17.54 7.44 17.54 4.34 16.76 4.34 16.76 7.44 13.66 7.44 13.66 8.22 16.76 8.22 16.76 11.33 17.54 11.33 17.54 8.22 20.65 8.22 20.65 7.44 17.54 7.44"/></g></g></svg>