<svg xmlns="http://www.w3.org/2000/svg" viewBox="0 0 21.74 27.15"><defs><style>.cls-1{fill:#fff;}</style></defs><title>office</title><g id="Layer_2" data-name="Layer 2"><g id="content"><path class="cls-1" d="M12.22,27.15H.5a.5.5,0,0,1-.5-.5V10.42a.5.5,0,0,1,.5-.5H12.22a.5.5,0,0,1,.5.5V26.65A.5.5,0,0,1,12.22,27.15ZM1,26.15H11.72V10.92H1Z"/><path class="cls-1" d="M21.24,27.15h-9a.5.5,0,1,1,0-1h8.52V1H10v9.42a.5.5,0,0,1-.5.5.5.5,0,0,1-.5-.5V.5a.5.5,0,0,1,.5-.5H21.24a.5.5,0,0,1,.5.5V26.65A.5.5,0,0,1,21.24,27.15Z"/><path class="cls-1" d="M18.53,27.15h-3.6a.5.5,0,0,1-.5-.5V23a.5.5,0,0,1,.5-.5h3.6a.5.5,0,0,1,.5.5v3.61A.5.5,0,0,1,18.53,27.15Zm-3.1-1H18V23.54h-2.6Z"/><path class="cls-1" d="M6.81,27.15H3.21a.5.5,0,0,1-.5-.5V23a.5.5,0,0,1,.5-.5h3.6a.5.5,0,0,1,.5.5v3.61A.5.5,0,0,1,6.81,27.15Zm-3.1-1h2.6V23.54H3.71Z"/><path class="cls-1" d="M5.91,13.62H.5a.5.5,0,0,1-.5-.5.5.5,0,0,1,.5-.5H5.91a.5.5,0,0,1,.5.5A.5.5,0,0,1,5.91,13.62Z"/><path class="cls-1" d="M5,16.33H.5a.5.5,0,1,1,0-1H5a.5.5,0,1,1,0,1Z"/><path class="cls-1" d="M14.93,6.41H9.52a.5.5,0,0,1,0-1h5.41a.5.5,0,0,1,0,1Z"/><path class="cls-1" d="M16.73,3.71H9.52a.5.5,0,0,1-.5-.5.5.5,0,0,1,.5-.5h7.21a.5.5,0,0,1,.5.5A.5.5,0,0,1,16.73,3.71Z"/><path class="cls-1" d="M13.12,9.12H9.52a.5.5,0,0,1-.5-.5.5.5,0,0,1,.5-.5h3.6a.5.5,0,0,1,.5.5A.5.5,0,0,1,13.12,9.12Z"/><path class="cls-1" d="M3.21,19H.5a.5.5,0,0,1-.5-.5A.5.5,0,0,1,.5,18H3.21a.51.51,0,0,1,.5.5A.5.5,0,0,1,3.21,19Z"/></g></g></svg>