<svg xmlns="http://www.w3.org/2000/svg" viewBox="0 0 23.11 28.65"><defs><style>.cls-1{fill:#fff;}</style></defs><title>pdf</title><g id="Layer_2" data-name="Layer 2"><g id="content"><g id="Pdf"><path class="cls-1" d="M20.8,28.65H2.31A2.31,2.31,0,0,1,0,26.34v-24A2.31,2.31,0,0,1,2.31,0h9.4a2.3,2.3,0,0,1,1.63.68l9.08,9.08a2.29,2.29,0,0,1,.68,1.63V26.34A2.31,2.31,0,0,1,20.8,28.65ZM2.31.92A1.39,1.39,0,0,0,.92,2.31v24a1.39,1.39,0,0,0,1.39,1.39H20.8a1.39,1.39,0,0,0,1.39-1.39V11.4a1.4,1.4,0,0,0-.41-1L12.69,1.33a1.38,1.38,0,0,0-1-.41Z"/><path class="cls-1" d="M18.77,18.1a.73.73,0,0,0-.21-.37,3,3,0,0,0-1.91-.45,15.75,15.75,0,0,0-2.29.17,5.71,5.71,0,0,1-1.06-.73,7.76,7.76,0,0,1-1.92-3l.07-.3a19.38,19.38,0,0,0,.34-3.49,1,1,0,0,0-.06-.25l0-.1A.83.83,0,0,0,10.93,9H10.7a.85.85,0,0,0-.87.55c-.28,1,0,2.56.53,4.55l-.13.32c-.37.91-.84,1.83-1.25,2.63l-.05.1c-.43.85-.83,1.57-1.19,2.18l-.37.19L6.56,20a4.51,4.51,0,0,0-2.23,2.28.56.56,0,0,0,.21.62l.36.18a1.09,1.09,0,0,0,.49.12c.89,0,1.93-1.11,3.36-3.61a33.45,33.45,0,0,1,5.18-1.23,8.93,8.93,0,0,0,3.77,1.2,1.75,1.75,0,0,0,.44,0,.77.77,0,0,0,.44-.3A1.6,1.6,0,0,0,18.77,18.1ZM5.2,22.49A6.21,6.21,0,0,1,7,20.38l.34-.32A6.37,6.37,0,0,1,5.2,22.49Zm5.65-13c.29,0,.45.72.46,1.4A2.88,2.88,0,0,1,11,12.39a7.32,7.32,0,0,1-.24-1.88S10.72,9.47,10.85,9.47ZM9.16,18.75q.3-.54.62-1.14a21.29,21.29,0,0,0,1.09-2.38,7.87,7.87,0,0,0,1.8,2.23l.28.23A22.86,22.86,0,0,0,9.16,18.75Zm9.11-.08a1.33,1.33,0,0,1-.5.09,5.89,5.89,0,0,1-2.08-.63c.35,0,.67,0,1,0a3.67,3.67,0,0,1,1.19.13C18.36,18.35,18.36,18.61,18.27,18.67Z"/></g></g></g></svg>