<svg xmlns="http://www.w3.org/2000/svg" viewBox="0 0 35.15 35.15"><defs><style>.cls-1{fill:#fff;}</style></defs><title>phone</title><g id="Layer_2" data-name="Layer 2"><g id="content"><path class="cls-1" d="M23,35.15a4.93,4.93,0,0,1-2.73-.82A69.28,69.28,0,0,1,.82,14.88a5,5,0,0,1,.62-6.23L3.17,6.92a3.48,3.48,0,0,1,4.91,0l3.15,3.15a3.48,3.48,0,0,1,0,4.91h0l-.73.73a69.91,69.91,0,0,0,8.94,8.94l.73-.73a3.56,3.56,0,0,1,4.91,0l3.15,3.15a3.48,3.48,0,0,1,0,4.91L26.5,33.71A4.94,4.94,0,0,1,23,35.15ZM5.63,6.91a2.46,2.46,0,0,0-1.75.72L2.15,9.36a4,4,0,0,0-.5,5A68.35,68.35,0,0,0,20.82,33.5a4,4,0,0,0,5-.5l1.73-1.73a2.46,2.46,0,0,0,0-3.49l-3.15-3.15a2.52,2.52,0,0,0-3.49,0l-1.05,1.05a.5.5,0,0,1-.67,0A69.76,69.76,0,0,1,9.44,16a.5.5,0,0,1,0-.67l1-1.05a2.46,2.46,0,0,0,0-3.49L7.37,7.63A2.45,2.45,0,0,0,5.63,6.91Zm5.25,7.72h0Z"/><path class="cls-1" d="M34.65,18.08a.5.5,0,0,1-.5-.5A16.6,16.6,0,0,0,17.57,1a.5.5,0,0,1,0-1A17.6,17.6,0,0,1,35.15,17.58.5.5,0,0,1,34.65,18.08Z"/><path class="cls-1" d="M28.71,18.08a.5.5,0,0,1-.5-.5A10.65,10.65,0,0,0,17.57,6.94a.5.5,0,0,1,0-1A11.65,11.65,0,0,1,29.21,17.58.5.5,0,0,1,28.71,18.08Z"/><path class="cls-1" d="M22.77,18.08a.5.5,0,0,1-.5-.5,4.71,4.71,0,0,0-4.7-4.7.5.5,0,0,1-.5-.5.51.51,0,0,1,.5-.5,5.71,5.71,0,0,1,5.7,5.7A.5.5,0,0,1,22.77,18.08Z"/></g></g></svg>