<svg xmlns="http://www.w3.org/2000/svg" viewBox="0 0 27.15 27.15"><defs><style>.cls-1{fill:#fff}</style></defs><title>email</title><g id="Layer_2" data-name="Layer 2"><g id="content"><path class="cls-1" d="M24.94 27.15H2.21A2.21 2.21 0 0 1 0 24.94V13a.51.51 0 0 1 .22-.42l4.51-3a.5.5 0 0 1 .69.14.49.49 0 0 1-.13.69L1 13.27v11.67a1.21 1.21 0 0 0 1.21 1.21h22.73a1.21 1.21 0 0 0 1.21-1.21V13.27l-4.29-2.89a.49.49 0 0 1-.13-.69.5.5 0 0 1 .69-.14l4.51 3a.51.51 0 0 1 .22.42v11.97a2.21 2.21 0 0 1-2.21 2.21z"/><path class="cls-1" d="M23.49 24a.5.5 0 0 1-.32-.11L17.45 19H9.7L4 23.88a.5.5 0 0 1-.65-.77l5.86-5a.55.55 0 0 1 .31-.11h8.11a.55.55 0 0 1 .33.12l5.86 5a.52.52 0 0 1 .06.71.52.52 0 0 1-.39.17zm-3.66-5.95a.5.5 0 0 1-.28-.91l6.82-4.55a.51.51 0 0 1 .7.14.5.5 0 0 1-.14.69L20.11 18a.5.5 0 0 1-.28.05zm-12.51 0A.5.5 0 0 1 7 18L.22 13.42a.5.5 0 0 1-.14-.69.51.51 0 0 1 .7-.14l6.82 4.55a.5.5 0 0 1-.28.91z"/><path class="cls-1" d="M22.14 16.51a.5.5 0 0 1-.5-.5V1H5.51v15a.5.5 0 0 1-1 0V.5A.5.5 0 0 1 5 0h17.14a.5.5 0 0 1 .5.5V16a.5.5 0 0 1-.5.51z"/><path class="cls-1" d="M10.87 4.61H8.62a.5.5 0 0 1-.5-.5.5.5 0 0 1 .5-.5h2.25a.5.5 0 0 1 .5.5.5.5 0 0 1-.5.5zm7.66 2.7h-7.66a.5.5 0 0 1-.5-.5.5.5 0 0 1 .5-.5h7.66a.5.5 0 0 1 .5.5.5.5 0 0 1-.5.5zm0 3.61H8.62a.5.5 0 0 1 0-1h9.91a.5.5 0 0 1 0 1zm0 3.61H8.62a.5.5 0 0 1-.5-.5.5.5 0 0 1 .5-.5h9.91a.5.5 0 0 1 .5.5.5.5 0 0 1-.5.5z"/></g></g></svg>