<svg xmlns="http://www.w3.org/2000/svg" viewBox="0 0 19.03 18.96"><defs><style>.cls-1{fill:#164ca0}</style></defs><title>linkedin</title><g id="Layer_2" data-name="Layer 2"><path class="cls-1" d="M3.94 3.94a2.22 2.22 0 0 1-1.64.67 2.22 2.22 0 0 1-1.63-.67A2.23 2.23 0 0 1 0 2.3 2.18 2.18 0 0 1 .67.71a2.25 2.25 0 0 1 3.27 0 2.18 2.18 0 0 1 .67 1.6 2.22 2.22 0 0 1-.67 1.63zm.56 2.53v12a.72.72 0 0 1-.15.33.7.7 0 0 1-.35.2H.59a.71.71 0 0 1-.33-.15.72.72 0 0 1-.15-.33v-12a.72.72 0 0 1 .15-.33A.71.71 0 0 1 .59 6H4a.71.71 0 0 1 .33.15.72.72 0 0 1 .17.32zm9.74 3.23a1.74 1.74 0 0 0-1.34-.45 2 2 0 0 0-1.71.71 3.53 3.53 0 0 0-.48 2v6.5a.51.51 0 0 1-.48.48H6.8a.71.71 0 0 1-.33-.15.71.71 0 0 1-.15-.33v-12a.72.72 0 0 1 .15-.33A.72.72 0 0 1 6.8 6h3.31a.65.65 0 0 1 .3.07s.1.11.15.26v.54A4.65 4.65 0 0 1 14 5.69a5.43 5.43 0 0 1 3.72 1.15A4.55 4.55 0 0 1 19 10.37v8.1a.51.51 0 0 1-.48.48h-3.47a.51.51 0 0 1-.48-.48v-7.32a2.67 2.67 0 0 0-.33-1.45z" id="content"/></g></svg>