<svg xmlns="http://www.w3.org/2000/svg" viewBox="0 0 21.74 27.15"><defs><style>.cls-1{fill:#fff}</style></defs><title>office</title><g id="Layer_2" data-name="Layer 2"><g id="content"><path class="cls-1" d="M12.22 27.15H.5a.5.5 0 0 1-.5-.5V10.42a.5.5 0 0 1 .5-.5h11.72a.5.5 0 0 1 .5.5v16.23a.5.5 0 0 1-.5.5zM1 26.15h10.72V10.92H1z"/><path class="cls-1" d="M21.24 27.15h-9a.5.5 0 1 1 0-1h8.52V1H10v9.42a.5.5 0 0 1-.5.5.5.5 0 0 1-.5-.5V.5a.5.5 0 0 1 .5-.5h11.74a.5.5 0 0 1 .5.5v26.15a.5.5 0 0 1-.5.5z"/><path class="cls-1" d="M18.53 27.15h-3.6a.5.5 0 0 1-.5-.5V23a.5.5 0 0 1 .5-.5h3.6a.5.5 0 0 1 .5.5v3.61a.5.5 0 0 1-.5.54zm-3.1-1H18v-2.61h-2.6zm-8.62 1h-3.6a.5.5 0 0 1-.5-.5V23a.5.5 0 0 1 .5-.5h3.6a.5.5 0 0 1 .5.5v3.61a.5.5 0 0 1-.5.54zm-3.1-1h2.6v-2.61h-2.6zm2.2-12.53H.5a.5.5 0 0 1-.5-.5.5.5 0 0 1 .5-.5h5.41a.5.5 0 0 1 .5.5.5.5 0 0 1-.5.5zM5 16.33H.5a.5.5 0 1 1 0-1H5a.5.5 0 1 1 0 1zm9.93-9.92H9.52a.5.5 0 0 1 0-1h5.41a.5.5 0 0 1 0 1zm1.8-2.7H9.52a.5.5 0 0 1-.5-.5.5.5 0 0 1 .5-.5h7.21a.5.5 0 0 1 .5.5.5.5 0 0 1-.5.5zm-3.61 5.41h-3.6a.5.5 0 0 1-.5-.5.5.5 0 0 1 .5-.5h3.6a.5.5 0 0 1 .5.5.5.5 0 0 1-.5.5zM3.21 19H.5a.5.5 0 0 1-.5-.5.5.5 0 0 1 .5-.5h2.71a.51.51 0 0 1 .5.5.5.5 0 0 1-.5.5z"/></g></g></svg>