<svg xmlns="http://www.w3.org/2000/svg" viewBox="0 0 16.21 15.97"><defs><style>.cls-1{fill:#164ca0}</style></defs><title>share</title><g id="Layer_2" data-name="Layer 2"><path class="cls-1" d="M13.34 5.61A4.77 4.77 0 0 1 12 5.13a1.15 1.15 0 0 0-1.41-.06c-1.48.77-3 1.45-4.48 2.21a1 1 0 0 0-.54.67 1 1 0 0 0 .51.69c1.58.81 3.17 1.59 4.78 2.33a1.18 1.18 0 0 0 .94-.08 2.86 2.86 0 0 1 3.47.22A2.78 2.78 0 0 1 13 15.93a2.73 2.73 0 0 1-2.35-2.54 1 1 0 0 0-.69-1c-1.53-.72-3-1.47-4.56-2.23a.94.94 0 0 0-1.12.05 2.72 2.72 0 0 1-3.63-.47 2.78 2.78 0 0 1 0-3.6 2.69 2.69 0 0 1 3.7-.44.87.87 0 0 0 1 .07c1.45-.71 2.87-1.41 4.31-2.06a1.56 1.56 0 0 0 1.1-1.42A2.64 2.64 0 0 1 13.42 0a2.78 2.78 0 0 1 2.73 2.24 2.71 2.71 0 0 1-1.66 3.1 9 9 0 0 1-1.15.27z" id="content"/></g></svg>