<?xml version="1.0" standalone="no"?>
<!DOCTYPE svg PUBLIC "-//W3C//DTD SVG 20010904//EN"
 "http://www.w3.org/TR/2001/REC-SVG-20010904/DTD/svg10.dtd">
<svg version="1.0" xmlns="http://www.w3.org/2000/svg"
 width="947.000000pt" height="947.000000pt" viewBox="0 0 947.000000 947.000000"
 preserveAspectRatio="xMidYMid meet">
<metadata>
Created by potrace 1.11, written by Peter Selinger 2001-2013
</metadata>
<g transform="translate(0.000000,947.000000) scale(0.100000,-0.100000)"
fill="#000000" stroke="none">
<path d="M4550 9464 c-239 -11 -531 -46 -750 -91 -1414 -285 -2622 -1203
-3279 -2492 -245 -482 -404 -998 -475 -1546 -54 -415 -45 -938 24 -1363 193
-1189 849 -2277 1807 -2999 869 -656 1897 -987 2973 -960 1092 29 2072 397
2925 1101 143 118 458 431 574 571 646 778 1018 1679 1101 2670 15 183 12 626
-5 816 -120 1285 -746 2450 -1750 3256 -716 575 -1600 934 -2505 1017 -169 16
-507 26 -640 20z m410 -1853 c228 -62 390 -206 439 -389 36 -133 32 -329 -9
-483 -21 -75 -145 -339 -160 -339 -5 0 -20 -24 -34 -53 -15 -29 -60 -93 -101
-142 -41 -49 -77 -96 -80 -105 -3 -9 -23 -31 -45 -49 -21 -17 -56 -56 -76 -87
-20 -30 -52 -65 -70 -78 -18 -12 -48 -41 -66 -63 -18 -23 -55 -59 -83 -81 -27
-22 -72 -63 -100 -91 -27 -28 -54 -51 -61 -51 -6 0 -22 -14 -35 -31 -13 -17
-64 -65 -114 -106 -49 -40 -108 -88 -129 -106 -22 -17 -49 -38 -60 -46 -12 -8
-32 -25 -46 -38 -46 -43 -178 -142 -300 -223 -20 -14 -56 -37 -78 -52 -23 -16
-48 -28 -56 -28 -7 0 -19 -7 -26 -15 -22 -26 -67 -44 -80 -31 -9 8 -11 6 -5
-12 5 -16 2 -24 -12 -29 -10 -4 -20 -9 -23 -12 -8 -9 -80 -54 -122 -76 -21
-11 -38 -22 -38 -26 0 -3 42 -46 93 -95 147 -143 409 -311 787 -504 171 -88
313 -160 315 -160 3 0 42 -17 87 -39 46 -21 151 -70 233 -109 83 -38 161 -73
175 -77 54 -15 186 -79 198 -96 6 -9 25 -20 41 -24 16 -3 35 -13 42 -21 24
-29 44 -15 68 49 24 60 37 90 94 207 15 30 27 58 27 62 0 4 16 42 37 85 20 43
37 83 38 88 2 16 33 87 60 136 13 25 22 49 18 53 -3 3 -37 6 -75 6 -38 0 -84
7 -103 14 -19 8 -35 11 -35 5 0 -6 -54 -7 -142 -3 l-143 5 -42 46 c-41 44 -58
71 -55 85 1 4 -8 12 -19 18 -12 7 -18 18 -15 26 3 8 -1 14 -9 14 -7 0 -17 10
-20 21 -8 26 13 69 33 69 8 0 54 14 103 30 48 17 109 33 135 35 26 3 59 11 73
18 16 8 37 10 54 6 15 -4 27 -4 27 0 0 4 30 12 66 18 36 6 74 19 84 28 9 8 41
20 71 24 30 5 67 14 82 20 15 6 31 10 35 9 4 -1 26 4 50 11 23 6 46 10 51 7
10 -6 77 133 73 151 -2 7 4 23 12 35 7 13 37 93 66 178 57 170 74 209 66 146
-4 -28 -2 -36 6 -28 6 6 16 8 22 6 7 -3 19 17 29 49 19 62 22 89 3 38 -12 -33
-36 -54 -36 -32 0 6 5 11 11 11 6 0 9 6 6 14 -3 7 0 19 6 25 6 6 9 11 7 12
-48 6 -81 4 -114 -8 -23 -7 -54 -13 -71 -11 -16 1 -45 -6 -64 -15 -19 -9 -44
-17 -56 -17 -12 0 -52 -16 -89 -35 -37 -19 -73 -35 -81 -35 -7 0 -23 -9 -36
-19 -23 -19 -23 -20 -5 -34 19 -14 19 -14 -2 -35 -30 -30 -43 -28 -81 14 l-32
37 -57 -13 c-86 -18 -308 -93 -382 -128 -36 -17 -128 -68 -205 -114 -78 -46
-166 -92 -198 -103 -53 -18 -58 -18 -73 -3 -15 15 -14 22 17 85 18 37 35 71
37 75 1 3 -11 22 -27 41 -38 43 -39 66 -3 99 143 132 635 336 1081 448 126 32
198 54 203 64 6 11 24 16 58 16 27 0 61 5 77 11 37 15 63 18 63 7 0 -5 15 -8
33 -7 22 2 31 -1 29 -10 -2 -8 11 -5 35 10 45 27 56 41 40 51 -21 13 26 62 79
82 27 11 71 30 98 43 52 24 108 29 149 14 26 -10 59 -79 54 -116 -2 -17 5 -21
38 -23 22 -2 42 -8 46 -13 8 -14 43 -18 50 -7 6 10 161 -5 289 -28 347 -62
536 -208 557 -428 15 -161 -82 -251 -454 -421 -57 -25 -113 -47 -125 -47 -13
-1 -32 -8 -43 -15 -11 -7 -27 -13 -37 -13 -10 0 -18 -4 -18 -8 0 -12 -65 -33
-83 -26 -9 3 -23 -3 -34 -15 -11 -13 -29 -21 -49 -21 -17 0 -37 -7 -44 -15 -9
-11 -22 -14 -42 -10 -18 4 -28 3 -28 -5 0 -6 -4 -8 -10 -5 -5 3 -10 2 -10 -3
0 -5 -11 -7 -25 -4 -18 3 -25 0 -23 -9 2 -8 -6 -14 -17 -15 -11 0 -38 -6 -60
-12 -22 -7 -53 -12 -68 -12 -16 0 -26 -4 -22 -10 3 -5 -1 -10 -9 -10 -21 0
-31 21 -15 31 8 5 9 9 3 9 -5 0 -18 -6 -28 -13 -26 -19 -10 -45 32 -52 21 -4
62 -15 92 -25 30 -10 91 -26 135 -35 171 -36 563 -167 579 -194 3 -4 34 -22
68 -40 95 -48 154 -97 229 -190 75 -93 140 -214 163 -307 30 -115 14 -279 -34
-374 -42 -83 -130 -207 -187 -265 -74 -76 -144 -135 -158 -135 -6 0 -24 -13
-40 -30 -16 -16 -33 -30 -37 -30 -5 0 -14 -5 -21 -11 -7 -5 -25 -19 -42 -29
-16 -11 -41 -28 -55 -37 -22 -17 -23 -17 -18 -1 5 12 3 15 -7 11 -8 -3 -12 -9
-9 -15 9 -13 -22 -44 -59 -59 -18 -7 -40 -19 -49 -27 -21 -18 -23 -5 -6 33 6
14 16 25 23 25 15 0 107 61 101 67 -3 3 -15 -2 -28 -11 -12 -9 -30 -16 -40
-16 -10 0 -18 -6 -18 -14 0 -8 -11 -17 -24 -20 -27 -7 -92 -64 -83 -73 4 -3
15 5 26 18 20 24 20 24 21 3 0 -23 -46 -60 -69 -56 -7 2 -10 -1 -7 -7 4 -6
-11 -19 -34 -31 -22 -11 -40 -17 -40 -13 0 4 -7 -2 -15 -14 -8 -12 -32 -27
-53 -33 -20 -7 -44 -18 -52 -25 -23 -20 -138 -75 -155 -75 -8 0 -15 -4 -15 -8
0 -5 -28 -21 -61 -35 -54 -23 -60 -24 -44 -7 9 10 34 25 54 31 20 7 47 20 61
29 35 24 74 47 80 48 3 0 25 12 50 25 25 14 77 42 115 61 39 20 66 36 60 36
-5 0 5 10 24 22 19 12 29 24 22 26 -6 2 -17 0 -24 -6 -7 -5 -57 -33 -112 -62
-55 -29 -116 -62 -135 -72 -19 -11 -84 -45 -145 -76 -60 -31 -109 -62 -108
-68 1 -7 -8 -12 -20 -12 -32 0 -99 -27 -113 -46 -6 -9 -16 -16 -20 -14 -15 4
-54 -13 -54 -23 0 -5 -6 -9 -14 -9 -20 0 -148 -58 -169 -77 -9 -9 -20 -13 -23
-10 -4 3 -27 -4 -53 -17 -25 -12 -74 -33 -108 -46 -36 -13 -63 -28 -63 -36 0
-8 -6 -14 -12 -14 -10 0 -10 -2 -1 -8 9 -5 1 -13 -22 -24 -24 -11 -37 -12 -42
-5 -4 6 -2 12 4 14 6 2 19 10 29 18 33 25 -9 18 -63 -11 -32 -17 -39 -23 -21
-20 15 4 30 1 34 -5 5 -8 -6 -10 -37 -7 -55 6 -199 -36 -199 -57 0 -8 -7 -15
-16 -15 -8 0 -13 4 -10 9 7 10 -118 -28 -151 -47 -12 -7 -36 -12 -53 -12 -39
0 -70 -16 -70 -36 0 -9 -8 -28 -19 -42 -10 -15 -27 -52 -39 -82 -11 -30 -41
-98 -65 -150 -25 -52 -57 -132 -73 -177 -15 -45 -30 -80 -34 -78 -4 3 -10 -9
-14 -25 -3 -17 -10 -30 -16 -30 -12 0 -14 23 -3 34 4 4 8 21 9 39 2 27 0 28
-9 11 -5 -10 -16 -23 -24 -27 -11 -7 -12 -12 -2 -23 10 -12 9 -13 -5 -8 -12 4
-16 0 -16 -15 0 -19 -20 -27 -52 -22 -5 0 -8 -5 -8 -13 0 -7 -7 -19 -15 -26
-12 -10 -15 -10 -15 2 0 8 5 19 11 25 8 8 8 16 0 30 -6 10 -11 12 -11 6 0 -7
-7 -13 -15 -13 -17 0 -20 -16 -5 -25 6 -3 10 -11 10 -17 0 -7 -6 -6 -15 2 -13
10 -15 9 -15 -9 0 -16 -6 -21 -26 -21 -21 0 -25 3 -19 17 4 10 9 38 11 63 2
25 1 37 -2 28 -6 -19 -24 -25 -24 -8 0 6 6 23 14 38 11 22 11 29 1 39 -7 6
-16 9 -19 6 -9 -10 -7 20 3 36 5 8 16 11 25 8 9 -4 16 -2 16 3 0 6 -6 10 -14
10 -16 0 -30 61 -21 93 4 12 28 71 53 131 32 75 43 111 34 114 -7 2 -12 8 -12
13 0 4 7 6 15 3 8 -4 15 -2 15 3 0 5 -33 10 -72 11 -93 2 -136 9 -223 34 -140
41 -197 86 -305 238 -76 107 -100 165 -100 245 0 55 15 75 23 33 4 -20 4 -19
6 5 0 17 7 27 16 27 10 0 15 10 15 27 0 34 29 113 42 113 5 0 6 -9 3 -21 -6
-17 -3 -20 11 -17 11 2 21 14 24 28 7 35 42 73 52 57 5 -8 8 -5 8 9 0 21 29
68 30 47 0 -6 -5 -15 -10 -18 -6 -4 -8 -10 -5 -15 6 -10 38 18 55 49 6 12 15
21 21 21 6 0 18 9 27 21 12 13 23 18 35 13 17 -6 17 -7 0 -27 -17 -19 -16 -19
14 2 45 31 50 42 14 35 -29 -6 -31 -4 -29 20 1 14 6 26 10 26 14 0 48 34 48
48 0 7 4 11 9 8 16 -10 41 5 39 23 -2 9 3 15 10 14 6 -2 12 2 12 7 0 6 7 10
15 10 8 0 15 7 15 15 0 8 7 15 16 15 9 0 36 17 61 37 36 30 46 34 54 22 8 -11
15 -8 39 19 17 18 30 29 30 26 0 -3 12 1 26 11 21 14 28 15 35 4 9 -15 3 -29
-12 -29 -6 0 -7 6 -3 13 3 6 -12 -6 -34 -28 -43 -42 -52 -58 -27 -49 16 6 21
-11 7 -20 -5 -3 -7 -20 -4 -37 4 -27 2 -31 -12 -26 -10 4 -19 1 -22 -8 -4 -8
-11 -12 -17 -8 -5 3 -7 1 -3 -5 3 -6 0 -16 -7 -24 -7 -7 -16 -21 -20 -31 -4
-11 -12 -15 -18 -11 -8 5 -9 3 -4 -6 5 -8 -12 -31 -49 -66 -31 -29 -56 -58
-56 -64 0 -5 -4 -10 -9 -10 -9 0 -83 -107 -116 -168 -16 -29 -20 -56 -20 -129
0 -121 11 -138 127 -188 69 -29 338 -32 338 -4 0 6 7 17 15 25 8 9 15 24 15
34 0 10 5 22 10 25 6 4 8 11 5 16 -4 5 -1 9 5 9 6 0 9 3 6 8 -2 4 6 30 20 57
13 28 24 53 24 58 0 4 31 71 69 150 37 78 81 171 96 207 15 36 59 133 97 215
37 83 68 154 68 158 0 4 10 24 23 45 13 20 29 57 36 82 7 25 22 62 33 84 11
21 16 42 11 46 -4 5 -289 99 -633 210 -344 111 -635 208 -647 216 -12 8 -29
14 -36 14 -8 0 -25 9 -38 19 -14 10 -65 40 -114 66 -50 25 -99 55 -110 64 -11
10 -32 21 -46 24 -14 4 -38 18 -53 32 -15 14 -31 25 -36 25 -5 0 -24 13 -42
30 -18 16 -38 30 -45 30 -7 0 -23 11 -35 25 -12 14 -27 25 -34 25 -7 0 -17 6
-21 14 -4 7 -42 41 -83 74 -41 33 -81 70 -88 81 -7 12 -16 21 -22 21 -18 0
-50 -135 -75 -318 -28 -208 -44 -279 -80 -356 -34 -71 -52 -79 -144 -66 -77
11 -111 30 -111 60 0 10 -7 23 -15 30 -20 16 -20 105 1 269 14 118 48 343 61
403 l5 27 -53 -29 c-64 -34 -247 -90 -296 -90 -18 0 -60 -9 -93 -20 -38 -13
-81 -19 -122 -18 -35 1 -68 -1 -74 -4 -5 -4 -36 0 -69 8 -33 7 -82 14 -109 14
-94 0 -265 116 -279 189 -4 18 -16 45 -26 60 -12 16 -18 36 -14 49 3 11 -2 31
-11 44 -9 13 -16 42 -16 69 0 58 20 159 31 159 5 0 9 7 9 15 0 15 59 135 71
145 3 3 12 16 18 29 7 13 32 43 54 67 23 25 42 48 42 52 0 23 263 242 291 242
7 0 23 11 36 24 13 13 59 47 103 76 44 29 92 61 107 72 15 10 36 18 46 18 10
0 38 14 61 30 38 28 74 47 291 150 109 52 184 75 176 54 -3 -8 -1 -14 5 -14 6
0 7 -4 4 -10 -4 -6 5 -9 19 -8 15 1 26 6 26 11 0 5 -7 7 -15 3 -8 -3 -15 -1
-15 3 0 5 6 12 13 14 7 3 4 6 -6 6 -29 1 -9 21 22 21 15 0 33 6 39 12 10 10
15 10 22 -2 5 -8 10 -10 10 -5 1 6 6 -1 11 -14 7 -19 12 -22 21 -13 7 7 20 12
29 12 26 0 33 31 9 37 -11 3 -17 10 -14 15 3 5 17 7 31 3 16 -4 22 -2 18 5 -3
5 -2 10 4 10 16 0 47 116 82 305 18 94 33 180 34 193 2 31 41 69 89 86 71 25
89 26 126 3 99 -61 98 -60 103 -102 3 -22 2 -44 -4 -50 -5 -5 -9 -18 -9 -30 0
-11 -7 -49 -15 -85 -26 -117 -44 -255 -34 -258 5 -2 6 -8 3 -14 -5 -7 2 -9 20
-4 16 4 25 3 22 -2 -3 -5 -20 -13 -38 -16 -31 -7 -32 -8 -10 -16 25 -10 30
-30 8 -30 -8 0 -17 -4 -20 -9 -4 -5 19 -7 54 -4 33 3 60 3 60 0 0 -14 -55 -41
-92 -47 -40 -5 -40 -5 -64 -80 -13 -41 -31 -111 -39 -155 -9 -44 -29 -125 -45
-180 -34 -117 -80 -299 -80 -314 0 -25 294 175 489 334 68 55 164 133 215 174
387 313 731 692 865 951 79 152 111 240 118 317 4 52 2 68 -16 97 -25 40 -116
125 -146 136 -11 5 -42 17 -70 28 -76 29 -244 46 -403 39 -223 -9 -443 -56
-599 -126 -49 -22 -122 -52 -163 -66 -129 -46 -311 -135 -400 -195 -47 -32
-105 -68 -130 -80 -106 -53 -349 -236 -413 -312 -20 -24 -44 -51 -52 -60 -8
-10 -15 -21 -15 -26 0 -4 -9 -15 -19 -24 -18 -15 -21 -15 -50 3 -103 62 -100
252 7 363 69 71 207 182 287 230 44 27 91 57 104 67 13 11 30 19 39 19 8 0 30
14 49 30 18 17 39 30 44 30 6 0 31 13 55 30 25 16 55 32 69 36 13 3 26 12 28
18 3 7 20 16 38 20 18 3 73 29 122 56 49 28 95 50 102 50 20 0 118 42 144 62
13 10 35 18 50 18 41 0 71 11 71 26 0 8 10 14 24 14 13 0 49 11 80 25 31 14
56 22 56 19 0 -4 6 -2 13 3 19 16 222 71 322 87 140 24 149 24 340 21 144 -3
195 -7 255 -24z m-1200 -1570 c0 -5 -13 -14 -30 -20 -35 -12 -42 5 -7 19 29
12 37 12 37 1z m2656 -1388 c-7 -7 -26 7 -26 19 0 6 6 6 15 -2 9 -7 13 -15 11
-17z m-1588 -1423 c-7 -11 -17 -20 -22 -20 -5 0 -1 9 9 20 10 11 20 20 22 20
2 0 -2 -9 -9 -20z m-508 -314 c0 -3 -4 -8 -10 -11 -5 -3 -10 -1 -10 4 0 6 5
11 10 11 6 0 10 -2 10 -4z m-80 -72 c0 -8 -5 -12 -10 -9 -6 4 -8 11 -5 16 9
14 15 11 15 -7z m-123 -116 c-3 -8 -6 -5 -6 6 -1 11 2 17 5 13 3 -3 4 -12 1
-19z m2100 -284 c-3 -3 -12 -4 -19 -1 -8 3 -5 6 6 6 11 1 17 -2 13 -5z m-217
-94 c-20 -13 -33 -13 -25 0 3 6 14 10 23 10 15 0 15 -2 2 -10z m-133 -56 c-16
-8 -34 -13 -40 -11 -7 3 -1 9 13 15 38 16 59 13 27 -4z m-57 -18 c0 -3 -4 -8
-10 -11 -5 -3 -10 -1 -10 4 0 6 5 11 10 11 6 0 10 -2 10 -4z m-60 -36 c-20
-13 -33 -13 -25 0 3 6 14 10 23 10 15 0 15 -2 2 -10z m-209 -91 c-17 -14 -27
-17 -35 -9 -13 13 9 30 39 30 19 -1 18 -2 -4 -21z m-61 -14 c0 -9 -6 -12 -15
-9 -8 4 -12 10 -9 15 8 14 24 10 24 -6z"/>
<path d="M3158 5943 c7 -3 16 -2 19 1 4 3 -2 6 -13 5 -11 0 -14 -3 -6 -6z"/>
<path d="M3160 5715 c-25 -13 -90 -43 -145 -65 -346 -145 -747 -418 -940 -642
-66 -77 -175 -238 -175 -259 0 -9 16 -25 38 -35 31 -16 60 -19 187 -19 169 1
252 15 430 72 105 34 430 167 449 183 4 5 26 66 48 137 39 127 178 631 178
646 0 12 -23 7 -70 -18z"/>
<path d="M6798 5723 c7 -3 16 -2 19 1 4 3 -2 6 -13 5 -11 0 -14 -3 -6 -6z"/>
<path d="M6600 5503 c8 -3 20 -10 26 -15 8 -5 14 -3 18 7 4 12 -2 15 -27 14
-18 0 -25 -3 -17 -6z"/>
<path d="M6798 5479 c15 -6 30 -5 40 1 13 7 8 9 -23 9 -35 0 -37 -1 -17 -10z"/>
<path d="M6655 5470 l-109 -5 -36 -120 c-20 -66 -42 -131 -50 -145 -7 -13 -13
-31 -14 -40 -2 -26 -38 -110 -47 -110 -5 0 -9 -16 -9 -35 l0 -35 43 6 c23 4
47 11 54 16 6 5 48 18 91 29 44 10 93 26 108 34 16 8 37 15 47 15 10 0 28 6
40 14 12 8 74 32 137 55 175 61 276 106 320 141 22 17 40 35 40 40 0 4 -15 13
-32 20 -18 6 -49 18 -68 26 -64 25 -288 75 -334 75 -10 0 -31 5 -45 12 -18 8
-62 10 -136 7z"/>
<path d="M6888 5473 c6 -2 18 -2 25 0 6 3 1 5 -13 5 -14 0 -19 -2 -12 -5z"/>
<path d="M6955 5460 c17 -4 39 -8 50 -8 16 0 15 2 -5 8 -14 4 -36 8 -50 8 -22
0 -22 -1 5 -8z"/>
<path d="M6136 5280 c-9 -17 -15 -30 -12 -30 3 0 -10 -44 -30 -97 -19 -54 -27
-89 -19 -79 8 11 15 27 15 36 0 9 3 19 6 23 7 7 63 171 60 174 -1 1 -10 -11
-20 -27z"/>
<path d="M6111 5284 c0 -11 3 -14 6 -6 3 7 2 16 -1 19 -3 4 -6 -2 -5 -13z"/>
<path d="M6048 5020 c-3 -14 -9 -34 -12 -45 -4 -11 0 -7 9 8 9 16 15 36 13 45
-3 12 -6 10 -10 -8z"/>
<path d="M7210 4986 c-14 -8 -44 -20 -67 -27 -24 -7 -43 -16 -43 -21 0 -4 -9
-8 -19 -8 -22 0 -129 -38 -149 -53 -23 -18 -4 -19 22 -2 19 13 30 14 39 7 10
-8 16 -6 26 9 7 12 18 18 27 15 8 -3 33 5 57 18 23 13 61 29 85 37 23 7 47 18
53 26 15 17 1 16 -31 -1z"/>
<path d="M6665 4790 l-20 -9 20 0 c11 0 27 4 35 9 13 9 13 10 0 9 -8 0 -24 -4
-35 -9z"/>
<path d="M6510 4736 c0 -2 8 -10 18 -17 15 -13 16 -12 3 4 -13 16 -21 21 -21
13z"/>
<path d="M6327 4661 c26 -25 55 -28 46 -6 -3 9 -8 14 -10 11 -3 -3 -17 0 -32
5 l-26 10 22 -20z"/>
<path d="M6455 4550 c-3 -5 -1 -10 4 -10 6 0 11 5 11 10 0 6 -2 10 -4 10 -3 0
-8 -4 -11 -10z"/>
<path d="M6500 4525 c7 -8 17 -15 22 -15 5 0 3 7 -6 15 -8 8 -18 15 -22 15 -3
0 -1 -7 6 -15z"/>
<path d="M6605 4500 c3 -5 8 -10 11 -10 2 0 4 5 4 10 0 6 -5 10 -11 10 -5 0
-7 -4 -4 -10z"/>
<path d="M6280 4460 c25 -8 107 -13 99 -6 -2 2 -31 6 -64 9 -37 3 -51 2 -35
-3z"/>
<path d="M6414 4438 c10 -6 39 -12 65 -14 40 -2 42 -1 21 8 -14 5 -43 12 -65
13 -32 3 -36 2 -21 -7z"/>
<path d="M5683 4433 c9 -2 23 -2 30 0 6 3 -1 5 -18 5 -16 0 -22 -2 -12 -5z"/>
<path d="M6260 4433 c8 -2 21 -7 29 -9 10 -3 11 -7 1 -19 -8 -10 -18 -11 -36
-4 -32 11 -91 12 -98 0 -7 -10 27 -21 67 -21 15 0 27 -4 27 -8 0 -5 -13 -7
-30 -4 -18 3 -30 0 -30 -7 0 -6 -5 -11 -11 -11 -5 0 -8 4 -5 9 3 5 -3 11 -13
14 -16 4 -25 -9 -55 -77 -19 -44 -56 -128 -82 -186 -25 -58 -68 -159 -95 -225
-28 -66 -56 -133 -64 -150 -8 -16 -23 -52 -35 -80 -12 -27 -34 -77 -51 -111
-16 -34 -29 -65 -29 -71 0 -10 57 -33 83 -33 9 0 17 -7 17 -15 0 -10 10 -15
33 -15 19 0 37 -3 41 -7 4 -5 11 -8 14 -9 4 0 25 -9 47 -18 22 -10 60 -26 84
-37 24 -10 49 -19 56 -19 14 0 75 -29 75 -36 0 -2 -12 -2 -27 1 l-28 6 29 -16
c23 -14 30 -14 37 -4 6 10 13 10 34 1 14 -7 24 -16 21 -20 -5 -9 80 -52 102
-52 7 0 12 -5 12 -11 0 -5 -3 -9 -7 -7 -5 2 -19 9 -33 15 -14 7 -158 55 -320
107 l-295 95 -22 -27 c-12 -15 -34 -57 -49 -94 -14 -38 -30 -70 -35 -74 -5 -3
-9 -13 -9 -23 0 -10 -7 -24 -15 -31 -8 -7 -15 -20 -15 -30 0 -18 -43 -112
-201 -439 -49 -101 -89 -185 -89 -187 0 -8 36 -4 45 5 11 10 161 61 180 61 7
0 18 6 24 14 7 8 26 18 42 21 52 12 620 274 734 339 61 35 160 89 220 121 61
32 122 69 137 81 15 12 61 41 102 63 40 23 79 48 87 57 7 8 30 24 51 35 21 11
38 23 38 27 1 4 30 27 66 52 36 25 107 85 156 134 76 75 98 104 134 180 55
111 58 160 16 227 -25 39 -120 129 -136 129 -18 0 -126 85 -122 96 3 8 1 16
-4 19 -6 4 -10 -2 -10 -12 0 -14 -2 -15 -9 -4 -7 10 -9 11 -13 1 -6 -18 -36 0
-51 30 -15 29 -40 40 -31 13 4 -12 -1 -9 -18 9 -14 15 -28 25 -31 22 -3 -3
-21 -3 -39 1 -32 7 -32 8 -10 16 13 5 36 6 50 2 25 -6 26 -5 13 11 -8 9 -20
14 -28 12 -8 -3 -33 4 -56 16 -23 13 -46 23 -52 23 -5 0 -12 3 -15 7 -5 6 -60
17 -118 22 -13 2 -27 7 -30 12 -4 6 -20 11 -35 12 -40 3 -67 20 -61 37 5 11 2
13 -10 9 -9 -3 -16 -13 -16 -21 0 -12 -7 -10 -34 7 -20 12 -37 17 -40 11 -11
-17 -80 0 -103 25 -12 13 -32 24 -45 23 -14 0 -17 -3 -8 -6z m21 -96 c-13 -13
-26 -3 -16 12 3 6 11 8 17 5 6 -4 6 -10 -1 -17z m99 9 c0 -8 -14 -15 -35 -18
-22 -2 -35 0 -35 8 0 7 10 9 26 6 19 -3 25 -1 20 7 -4 6 -1 11 8 11 9 0 16 -6
16 -14z m60 0 c0 -2 -7 -9 -15 -16 -13 -11 -14 -10 -9 4 5 14 24 23 24 12z
m47 -12 c-3 -3 -12 -4 -19 -1 -8 3 -5 6 6 6 11 1 17 -2 13 -5z m68 -4 c24 -9
25 -10 8 -28 -17 -17 -38 -9 -27 10 3 4 -2 8 -10 8 -9 0 -16 5 -16 10 0 13 12
13 45 0z m145 -40 c13 -8 13 -10 -2 -10 -9 0 -20 5 -23 10 -8 13 5 13 25 0z
m-105 -10 c8 -13 -5 -13 -25 0 -13 8 -13 10 2 10 9 0 20 -4 23 -10z m155 6 c0
-3 -4 -8 -10 -11 -5 -3 -10 -1 -10 4 0 6 5 11 10 11 6 0 10 -2 10 -4z"/>
<path d="M6558 4413 c7 -3 16 -2 19 1 4 3 -2 6 -13 5 -11 0 -14 -3 -6 -6z"/>
<path d="M5451 4376 c2 -2 56 -6 119 -9 65 -3 106 -1 95 3 -19 8 -223 14 -214
6z"/>
<path d="M5690 4354 c0 -17 22 -14 28 4 2 7 -3 12 -12 12 -9 0 -16 -7 -16 -16z"/>
<path d="M7361 3144 c0 -11 3 -14 6 -6 3 7 2 16 -1 19 -3 4 -6 -2 -5 -13z"/>
<path d="M7325 3120 c-3 -5 -1 -10 4 -10 6 0 11 5 11 10 0 6 -2 10 -4 10 -3 0
-8 -4 -11 -10z"/>
<path d="M4595 3100 c8 -13 46 -19 42 -7 -2 7 -13 13 -25 13 -12 1 -19 -2 -17
-6z"/>
<path d="M4565 3070 c-3 -5 -2 -10 4 -10 5 0 13 5 16 10 3 6 2 10 -4 10 -5 0
-13 -4 -16 -10z"/>
<path d="M4629 3043 c-13 -15 -12 -15 11 -3 34 17 36 20 18 20 -9 0 -22 -7
-29 -17z"/>
<path d="M4488 3023 c7 -3 16 -2 19 1 4 3 -2 6 -13 5 -11 0 -14 -3 -6 -6z"/>
<path d="M4568 3011 c-10 -13 -15 -28 -11 -34 9 -14 35 18 31 39 -3 17 -5 17
-20 -5z"/>
<path d="M7160 2989 l-25 -20 33 16 c17 8 32 18 32 20 0 10 -16 4 -40 -16z"/>
<path d="M4422 2943 c-47 -28 -51 -43 -5 -19 25 12 63 47 52 46 -2 -1 -23 -12
-47 -27z"/>
<path d="M4520 2932 c0 -5 7 -13 16 -16 10 -4 14 -1 12 6 -5 15 -28 23 -28 10z"/>
<path d="M4484 2899 c-8 -13 13 -36 23 -25 4 4 1 11 -6 15 -11 7 -11 10 0 14
9 3 10 6 2 6 -6 1 -15 -4 -19 -10z"/>
<path d="M4427 2823 c-4 -3 -7 -11 -7 -17 0 -6 5 -5 12 2 6 6 9 14 7 17 -3 3
-9 2 -12 -2z"/>
<path d="M4415 2770 c-3 -5 -1 -10 4 -10 6 0 11 5 11 10 0 6 -2 10 -4 10 -3 0
-8 -4 -11 -10z"/>
<path d="M4389 2733 c-13 -16 -12 -17 4 -4 16 13 21 21 13 21 -2 0 -10 -8 -17
-17z"/>
<path d="M4307 2691 c-24 -42 -21 -52 4 -13 12 18 20 35 17 37 -2 2 -12 -9
-21 -24z"/>
<path d="M4330 2669 c0 -15 18 -19 23 -6 3 8 -1 14 -9 14 -8 0 -14 -4 -14 -8z"/>
<path d="M4075 2639 c-4 -6 -5 -12 -2 -15 2 -3 7 2 10 11 7 17 1 20 -8 4z"/>
<path d="M4701 1514 c0 -11 3 -14 6 -6 3 7 2 16 -1 19 -3 4 -6 -2 -5 -13z"/>
</g>
</svg>
